<svg xmlns="http://www.w3.org/2000/svg" viewBox="0 0 400 300" data-imageid="loading-outline" imageName="Loading" class="illustrations_image" style="width: 151px;"><g id="_128_loading_outline" data-name="#128_loading_outline"><path d="M131.91,196.1s1.49,6.22,1.87,8.88h-15v-9.61Z" fill="#70cc40"/><path d="M133.78,206h-15a1,1,0,0,1-1-1v-9.61a1,1,0,0,1,1.05-1l13.09.72a1,1,0,0,1,.92.77c.06.25,1.51,6.29,1.89,9a1,1,0,0,1-1,1.15Zm-14-2H132.6c-.41-2.23-1.16-5.49-1.49-6.92l-11.29-.63Z" fill="#093f68"/><path d="M179.16,180.16s10.94,8.17,15.82,16.7l-21.26-.76s-5.83-13.5-11.64-15c0,0,7.79-8.31,9.43-8.09S179.16,180.16,179.16,180.16Z" fill="#70cc40"/><path d="M195,197.86h0l-21.26-.76a1,1,0,0,1-.88-.6c-1.57-3.63-6.59-13.29-11-14.39a1,1,0,0,1-.72-.69,1,1,0,0,1,.23-1c5.4-5.77,8.87-8.62,10.3-8.4,1.8.25,6.28,5.17,8.2,7.36,1.11.84,11.24,8.64,16,16.94a1,1,0,0,1-.87,1.5Zm-20.6-2.74,18.77.67c-5.08-7.68-14.48-14.76-14.58-14.83a.75.75,0,0,1-.16-.15c-2.64-3-6-6.38-7-6.75-1,.3-4.51,3.5-7.6,6.71C168.8,183.46,173.26,192.68,174.38,195.12Z" fill="#093f68"/><path d="M172.22,176.14s3.48,7.67,20,4,25.09-16.47,16.7-23.1c-10.76-8.5-17.8,5.71-28.6,2.6Z" fill="#70cc40"/><path d="M184,182.14c-10.05,0-12.6-5.31-12.72-5.59a1,1,0,0,1,0-.85l8.06-16.48a1,1,0,0,1,1.17-.52c4.37,1.26,8.06-.55,12-2.46,5.14-2.52,10.46-5.12,17,0a8.83,8.83,0,0,1,3.39,9.27c-1.58,6.85-10,13.26-20.49,15.58A38.85,38.85,0,0,1,184,182.14Zm-10.67-6c1,1.38,5.37,6,18.6,3.09,11.4-2.52,17.83-9.07,19-14.08a6.82,6.82,0,0,0-2.68-7.25c-5.54-4.38-9.87-2.27-14.87.18-3.85,1.89-7.83,3.84-12.57,2.8Zm-1.14,0h0Z" fill="#093f68"/><path d="M158.14,205H177.4c1.09-5.24-2.62-18.31-10-24.82l-14,7.63s4.4,5.75,4.4,11.06C157.75,202.38,157.6,203.88,158.14,205Z" fill="#70cc40"/><path d="M177.4,206H158.14a1,1,0,0,1-.9-.56c-.53-1.1-.52-2.32-.5-4.74,0-.54,0-1.15,0-1.83,0-4.9-4.15-10.4-4.19-10.45a1,1,0,0,1,.32-1.49l14-7.63a1,1,0,0,1,1.14.13c7.71,6.77,11.54,20.09,10.36,25.77A1,1,0,0,1,177.4,206Zm-18.54-2h17.68c.56-5.37-2.91-16.56-9.33-22.6l-12.39,6.75c1.28,1.91,3.93,6.39,3.93,10.72,0,.69,0,1.3,0,1.84A19.22,19.22,0,0,0,158.86,204Z" fill="#093f68"/><path d="M125.16,205a46.68,46.68,0,0,0-.74-8.88l-18.14-2.36S104.16,201.06,105,205Z" fill="#70cc40"/><path d="M125.16,206H105a1,1,0,0,1-1-.78c-.92-4.13,1.17-11.43,1.26-11.74a1,1,0,0,1,1.09-.71l18.14,2.36a1,1,0,0,1,.85.81,46.63,46.63,0,0,1,.76,9.13A1,1,0,0,1,125.16,206Zm-19.28-2H124.2a45.89,45.89,0,0,0-.65-7L107,194.85C106.56,196.66,105.56,201,105.88,204Z" fill="#093f68"/><path d="M90.62,187.79s-16.38,4.47-13.63,7.4,17.9,1.89,26.26-2.26Z" fill="#70cc40"/><path d="M84.74,197.85c-4,0-7.22-.63-8.48-2a2,2,0,0,1-.51-1.93c.23-.8,2-3.66,14.6-7.11a1,1,0,0,1,.65,0L103.62,192a1,1,0,0,1,.62.89,1,1,0,0,1-.55.94C98.5,196.4,90.77,197.85,84.74,197.85Zm5.82-9c-6.71,1.87-12.69,4.48-12.88,5.65,2,2.14,14.36,1.88,23-1.52Z" fill="#093f68"/><path d="M183,158.38s-13.73-3.67-22.71-11.18-18.49-11.17-37.54-5.67-21.43,20.33-24.72,27.28-9.53,10.44-11,14.66,19.23,12.63,37.36,12.63,35.71-9.15,47.8-20S183,158.38,183,158.38Z" fill="#f56132"/><path d="M124.42,197.1c-15.72,0-34.21-6.34-37.76-11.34a2.78,2.78,0,0,1-.54-2.62c.75-2.17,2.53-4,4.59-6.21a32.67,32.67,0,0,0,6.43-8.54c.52-1.1,1-2.45,1.58-3.87,2.93-7.65,7.34-19.21,23.77-24,19.41-5.6,29.41-1.7,38.47,5.87,8.69,7.27,22.19,10.93,22.32,11a1,1,0,0,1,.73.79c.05.3,1.24,7.63-11.13,18.69C158.72,189.54,140.61,197.1,124.42,197.1Zm14.49-57.21a57.55,57.55,0,0,0-15.86,2.6c-15.47,4.46-19.51,15-22.46,22.74-.56,1.46-1.09,2.85-1.64,4a34.33,34.33,0,0,1-6.79,9.07c-1.9,2-3.54,3.72-4.16,5.48-.08.24.15.61.29.81,2.88,4.05,20.58,10.5,36.13,10.5,15.71,0,33.33-7.37,47.13-19.7C181,167,182,161,182.05,159.14c-3-.86-14.4-4.5-22.38-11.17C153.81,143.07,147.78,139.89,138.91,139.89Z" fill="#093f68"/><path d="M124.91,190.51h-.5a66.19,66.19,0,0,1-35-10.5,1,1,0,1,1,1.16-1.63,65.48,65.48,0,0,0,33.89,10.13c20.65.23,39.69-11.63,52.32-32.43a1,1,0,0,1,1.37-.34,1,1,0,0,1,.34,1.38C165.56,178.36,146.07,190.51,124.91,190.51Z" fill="#093f68"/><path d="M135,168.5H135l-23.24-1.61a1,1,0,0,1-.88-.69l-4.77-14.63a1,1,0,0,1,1.9-.62l4.56,14,22.11,1.53,12.86-13.33-3.27-13.43a1,1,0,0,1,1.94-.47l3.4,14a1,1,0,0,1-.25.94l-13.57,14.06A1,1,0,0,1,135,168.5Z" fill="#093f68"/><path d="M104,186.94a.89.89,0,0,1-.36-.07,1,1,0,0,1-.58-1.29l7.79-20.06a1,1,0,1,1,1.86.73l-7.78,20.05A1,1,0,0,1,104,186.94Z" fill="#093f68"/><path d="M140.27,188.29a1,1,0,0,1-1-.74l-5.24-19.8a1,1,0,0,1,1.93-.51l5.25,19.8a1,1,0,0,1-.71,1.22Z" fill="#093f68"/><path d="M170.1,167.24a1.06,1.06,0,0,1-.51-.14l-21.51-12.81a1,1,0,0,1,1-1.72l21.52,12.81a1,1,0,0,1-.52,1.86Z" fill="#093f68"/><circle cx="197.89" cy="163.98" r="3.52" fill="#093f68"/><path d="M224.39,139.21l-13.12,57.73H175.74a4.22,4.22,0,0,0-4.23,4.22h0a4.22,4.22,0,0,0,4.23,4.22H299.3l15.35-66.23a5.89,5.89,0,0,0-5.74-7.22H233.52A9.36,9.36,0,0,0,224.39,139.21Z" fill="#9cdbe3" class="target-color"/><path d="M299.3,206.38H175.74a5.22,5.22,0,1,1,0-10.44h34.73L223.42,139h0a10.3,10.3,0,0,1,10.1-8.06h75.39a6.89,6.89,0,0,1,6.72,8.44l-15.36,66.24A1,1,0,0,1,299.3,206.38Zm-123.56-8.44a3.22,3.22,0,1,0,0,6.44H298.5l15.18-65.46a4.89,4.89,0,0,0-4.77-6H233.52a8.31,8.31,0,0,0-8.15,6.5l-13.12,57.73a1,1,0,0,1-1,.78Z" fill="#093f68"/><path d="M296.84,77.34H103.16a15.56,15.56,0,0,0,0,31.11h142v15.84l13.23-15.84h38.43a15.56,15.56,0,0,0,0-31.11Z" fill="#fff"/><path d="M245.18,125.29a1,1,0,0,1-.34-.06,1,1,0,0,1-.66-.94V109.45h-141a16.56,16.56,0,0,1,0-33.11H296.84a16.56,16.56,0,0,1,0,33.11h-38L246,124.93A1,1,0,0,1,245.18,125.29Zm-142-46.95a14.56,14.56,0,0,0,0,29.11h142a1,1,0,0,1,1,1v13.09l11.47-13.73a1,1,0,0,1,.76-.36h38.43a14.56,14.56,0,0,0,0-29.11Z" fill="#093f68"/><path d="M269.68,83.34H103.16a9.56,9.56,0,0,0,0,19.11H269.68Z" fill="#9cdbe3" class="target-color"/><path d="M269.68,103.45H103.16a10.56,10.56,0,0,1,0-21.11H269.68a1,1,0,0,1,1,1v19.11A1,1,0,0,1,269.68,103.45ZM103.16,84.34a8.56,8.56,0,0,0,0,17.11H268.68V84.34Z" fill="#093f68"/><path d="M163.69,96.74v-8.5h2.07V95H169v1.79Z" fill="#093f68"/><path d="M178.5,92.46a4.79,4.79,0,0,1-.35,1.84,4.29,4.29,0,0,1-1,1.43,4.44,4.44,0,0,1-1.47.91,5.11,5.11,0,0,1-1.85.33,5,5,0,0,1-1.84-.33,4.24,4.24,0,0,1-1.47-.91,4.29,4.29,0,0,1-1-1.43,5,5,0,0,1,0-3.69,4,4,0,0,1,1-1.39,4.2,4.2,0,0,1,1.47-.89,5.19,5.19,0,0,1,1.84-.31,5.32,5.32,0,0,1,1.85.31,4.39,4.39,0,0,1,1.47.89,4,4,0,0,1,1,1.39A4.77,4.77,0,0,1,178.5,92.46Zm-2.2,0a3,3,0,0,0-.18-1,2.49,2.49,0,0,0-.49-.82,2.33,2.33,0,0,0-.77-.54,2.55,2.55,0,0,0-2,0,2.29,2.29,0,0,0-.76.54,2.21,2.21,0,0,0-.5.82,3,3,0,0,0-.18,1,3.06,3.06,0,0,0,.18,1.06,2.56,2.56,0,0,0,.5.83,2.32,2.32,0,0,0,.76.55,2.47,2.47,0,0,0,1,.2,2.38,2.38,0,0,0,1-.2,2.36,2.36,0,0,0,.77-.55,2.39,2.39,0,0,0,.5-.83A3.06,3.06,0,0,0,176.3,92.46Z" fill="#093f68"/><path d="M185.4,96.74l-.66-1.67h-3.29l-.62,1.67H178.6l3.56-8.5h2l3.53,8.5Zm-2.28-6.23L182,93.43h2.14Z" fill="#093f68"/><path d="M196.32,92.47a4.25,4.25,0,0,1-.41,1.92,3.91,3.91,0,0,1-1.1,1.34,4.57,4.57,0,0,1-1.53.76,5.92,5.92,0,0,1-1.72.25h-3.17v-8.5h3.07a7.66,7.66,0,0,1,1.78.21,4.61,4.61,0,0,1,1.56.7,3.6,3.6,0,0,1,1.1,1.3A4.41,4.41,0,0,1,196.32,92.47Zm-2.14,0a2.68,2.68,0,0,0-.23-1.2,2,2,0,0,0-.62-.75,2.48,2.48,0,0,0-.89-.4,4.4,4.4,0,0,0-1-.12h-1v5h1a4.68,4.68,0,0,0,1.07-.12,2.49,2.49,0,0,0,.9-.42,2,2,0,0,0,.62-.76A2.66,2.66,0,0,0,194.18,92.47Z" fill="#093f68"/><path d="M197.68,96.74v-8.5h2.06v8.5Z" fill="#093f68"/><path d="M206.89,96.74l-3.42-5.56h0l0,5.56h-2v-8.5h2.34l3.41,5.55h0l-.05-5.55h2v8.5Z" fill="#093f68"/><path d="M217.06,96.75a7.37,7.37,0,0,1-1.81.21,5.15,5.15,0,0,1-1.88-.33,4.29,4.29,0,0,1-1.48-.91,4.11,4.11,0,0,1-1-1.41,4.52,4.52,0,0,1-.35-1.83,4.59,4.59,0,0,1,.35-1.85,4.15,4.15,0,0,1,1-1.41,4.25,4.25,0,0,1,1.46-.89,5.14,5.14,0,0,1,1.81-.31,5.7,5.7,0,0,1,1.88.3,4,4,0,0,1,1.4.82l-1.29,1.48a2.31,2.31,0,0,0-.8-.57,2.62,2.62,0,0,0-1.11-.22,2.35,2.35,0,0,0-1,.2,2.3,2.3,0,0,0-.79.55,2.25,2.25,0,0,0-.52.84,2.81,2.81,0,0,0-.19,1.06,3.4,3.4,0,0,0,.17,1.08,2.24,2.24,0,0,0,1.31,1.4,3,3,0,0,0,1.11.2,3.85,3.85,0,0,0,.69-.06,2.43,2.43,0,0,0,.6-.17V93.38H215V91.72h3.5v4.5A6.09,6.09,0,0,1,217.06,96.75Z" fill="#093f68"/><path d="M222.34,95.68a1.09,1.09,0,0,1-.36.84,1.15,1.15,0,0,1-.84.34,1.28,1.28,0,0,1-.48-.09,1.14,1.14,0,0,1-.39-.25,1.11,1.11,0,0,1-.26-1.28,1.22,1.22,0,0,1,.26-.38,1.33,1.33,0,0,1,.39-.26,1.28,1.28,0,0,1,.48-.09,1.19,1.19,0,0,1,.84.33A1.12,1.12,0,0,1,222.34,95.68Z" fill="#093f68"/><path d="M225.94,95.68a1.09,1.09,0,0,1-.36.84,1.15,1.15,0,0,1-.84.34,1.28,1.28,0,0,1-.48-.09,1.14,1.14,0,0,1-.39-.25,1.11,1.11,0,0,1-.26-1.28,1.22,1.22,0,0,1,.26-.38,1.33,1.33,0,0,1,.39-.26,1.28,1.28,0,0,1,.48-.09,1.19,1.19,0,0,1,.84.33A1.12,1.12,0,0,1,225.94,95.68Z" fill="#093f68"/><path d="M229.54,95.68a1.09,1.09,0,0,1-.36.84,1.15,1.15,0,0,1-.84.34,1.28,1.28,0,0,1-.48-.09,1.14,1.14,0,0,1-.39-.25,1.11,1.11,0,0,1-.26-1.28,1.22,1.22,0,0,1,.26-.38,1.33,1.33,0,0,1,.39-.26,1.28,1.28,0,0,1,.48-.09,1.19,1.19,0,0,1,.84.33A1.12,1.12,0,0,1,229.54,95.68Z" fill="#093f68"/><path d="M301.25,197.94h-90a1,1,0,0,1,0-2h90a1,1,0,0,1,0,2Z" fill="#093f68"/><ellipse cx="264.66" cy="167.65" rx="6.47" ry="5.4" transform="translate(-43.81 222.4) rotate(-42.42)" fill="#ffbc0e"/><path d="M263.59,174.57a5.88,5.88,0,0,1-4.6-2.06,6,6,0,0,1-1.22-5,8.44,8.44,0,0,1,8-6.74,5.86,5.86,0,0,1,4.61,2.06,6,6,0,0,1,1.22,5A8.45,8.45,0,0,1,263.59,174.57Zm2.14-11.83a6.35,6.35,0,0,0-6,5.09,4.07,4.07,0,0,0,.78,3.4,3.91,3.91,0,0,0,3.07,1.34,6.38,6.38,0,0,0,6-5.09,4.06,4.06,0,0,0-.78-3.4A3.94,3.94,0,0,0,265.73,162.74Z" fill="#093f68"/><path d="M330.64,206.38H69.36a1,1,0,0,1,0-2H330.64a1,1,0,0,1,0,2Z" fill="#093f68"/></g></svg>