<svg xmlns="http://www.w3.org/2000/svg" width="500" height="500" viewBox="0 0 500 500"><rect width="100%" height="100%" fill="#DDDDDD"/><path fill="#999999" d="m101.915 240.59-1.35-2.63q1.72-1.47 4.09-2.29 2.37-.82 5.26-.82 2.4 0 4.33.57 1.94.58 3.29 1.61 1.36 1.04 2.08 2.46.73 1.43.73 3.13 0 2.09-.95 3.78t-2.88 2.74q1.02.49 1.87 1.16.85.66 1.46 1.47.6.81.94 1.75.34.95.34 2.01 0 2.01-.75 3.75-.75 1.75-2.17 3.04-1.43 1.29-3.5 2.04-2.07.75-4.73.75-1.56 0-3.05-.28-1.48-.28-2.83-.79-1.36-.51-2.55-1.23-1.19-.72-2.11-1.6l1.62-2.64q.23-.29.54-.48.32-.2.71-.2.53 0 1.17.42.64.42 1.54.93.9.52 2.14.94 1.24.42 2.98.42 2.77 0 4.29-1.19 1.51-1.19 1.51-3.65 0-1.01-.41-1.81-.41-.79-1.16-1.35-.76-.55-1.84-.85-1.08-.3-2.39-.3h-4.18l-.02-4.42h3.81q2.57 0 4.01-1.02 1.45-1.01 1.45-2.94 0-1.7-1.37-2.72-1.36-1.01-3.94-1.01-1.5 0-2.58.33-1.07.32-1.86.7-.79.38-1.33.71-.55.33-.98.33-.41 0-.69-.21-.29-.2-.54-.61Zm34.5 18.8v-3.55q-2.19.1-3.69.38-1.49.28-2.39.71-.91.43-1.3 1-.39.58-.39 1.25 0 1.33.79 1.91.79.57 2.06.57 1.56 0 2.7-.56 1.14-.56 2.22-1.71Zm-10.7-11.05-.9-1.62q3.63-3.32 8.73-3.32 1.85 0 3.3.6 1.46.61 2.46 1.68 1.01 1.08 1.53 2.58.52 1.49.52 3.28v13.28h-2.29q-.72 0-1.11-.22-.39-.21-.61-.87l-.45-1.51q-.8.71-1.56 1.26-.76.54-1.58.91-.82.37-1.75.56-.94.2-2.06.2-1.34 0-2.46-.36-1.13-.36-1.95-1.08-.82-.71-1.27-1.78-.45-1.07-.45-2.48 0-.8.26-1.59.27-.79.87-1.51.61-.71 1.57-1.35.97-.64 2.37-1.11 1.4-.47 3.27-.77 1.87-.29 4.26-.35v-1.23q0-2.12-.9-3.13-.9-1.02-2.6-1.02-1.23 0-2.04.29t-1.43.65q-.61.36-1.11.64-.51.29-1.12.29-.53 0-.9-.28-.37-.27-.6-.64Zm25.22 13.02h3.77q1.6 0 2.53-.78.93-.78.93-2.14 0-.57-.15-1.07-.15-.5-.54-.87t-1.06-.58q-.66-.2-1.69-.2h-3.79v5.64Zm3.32-14.27h-3.32v5.51h3.32q.74 0 1.35-.21.62-.22 1.07-.62.45-.4.69-.94.25-.54.25-1.2 0-.47-.16-.93-.17-.46-.56-.82-.39-.36-1.03-.58-.65-.21-1.61-.21Zm-8.14-3.3h8.28q1.99 0 3.44.39 1.44.39 2.38 1.06.95.68 1.4 1.61.45.93.45 2.02 0 .68-.17 1.41-.18.72-.62 1.4-.44.68-1.2 1.23-.76.55-1.93.86 1.05.23 1.91.63.86.4 1.48 1 .61.61.95 1.41.34.81.34 1.82 0 1.6-.67 2.77-.66 1.17-1.78 1.92-1.12.76-2.58 1.13-1.47.37-3.07.37h-8.61v-21.03Zm31.71 15.6v-3.55q-2.19.1-3.69.38-1.49.28-2.39.71-.91.43-1.3 1-.39.58-.39 1.25 0 1.33.79 1.91.79.57 2.06.57 1.56 0 2.7-.56 1.14-.56 2.22-1.71Zm-10.7-11.05-.9-1.62q3.63-3.32 8.73-3.32 1.85 0 3.3.6 1.46.61 2.46 1.68 1.01 1.08 1.53 2.58.52 1.49.52 3.28v13.28h-2.29q-.72 0-1.11-.22-.39-.21-.61-.87l-.45-1.51q-.8.71-1.56 1.26-.76.54-1.58.91-.82.37-1.75.56-.94.2-2.06.2-1.34 0-2.46-.36-1.13-.36-1.95-1.08-.82-.71-1.27-1.78-.45-1.07-.45-2.48 0-.8.26-1.59.27-.79.87-1.51.61-.71 1.57-1.35.97-.64 2.37-1.11 1.4-.47 3.27-.77 1.87-.29 4.26-.35v-1.23q0-2.12-.9-3.13-.9-1.02-2.6-1.02-1.23 0-2.04.29t-1.43.65q-.61.36-1.11.64-.51.29-1.12.29-.53 0-.9-.28-.37-.27-.6-.64Zm33.66-4.55h5.07v21.03h-5.07v-9.31h-8.2v9.31h-5.06v-21.03h5.06v7.97h8.2v-7.97Zm28.13 0v3.75h-7.5v17.28h-5.07v-17.28h-7.48v-3.75h20.05Zm14.1 15.6v-3.55q-2.19.1-3.69.38-1.49.28-2.39.71-.91.43-1.3 1-.39.58-.39 1.25 0 1.33.79 1.91.79.57 2.06.57 1.56 0 2.7-.56 1.14-.56 2.22-1.71Zm-10.7-11.05-.9-1.62q3.63-3.32 8.73-3.32 1.85 0 3.3.6 1.46.61 2.46 1.68 1.01 1.08 1.53 2.58.52 1.49.52 3.28v13.28h-2.29q-.72 0-1.11-.22-.39-.21-.61-.87l-.45-1.51q-.8.71-1.56 1.26-.76.54-1.58.91-.82.37-1.75.56-.94.2-2.06.2-1.34 0-2.46-.36-1.13-.36-1.95-1.08-.82-.71-1.27-1.78-.45-1.07-.45-2.48 0-.8.26-1.59.27-.79.87-1.51.61-.71 1.57-1.35.97-.64 2.37-1.11 1.4-.47 3.27-.77 1.87-.29 4.26-.35v-1.23q0-2.12-.9-3.13-.9-1.02-2.6-1.02-1.23 0-2.04.29t-1.43.65q-.61.36-1.11.64-.51.29-1.12.29-.53 0-.9-.28-.37-.27-.6-.64Zm46.15 7.81 4.94 8.67h-3.51q-1.35 0-2.05-.41-.69-.41-1.1-1.33l-3.12-5.82q-.39-.76-1.03-1.13-.65-.37-1.51-.37h-1.66v9.06h-4.9v-9.06h-1.68q-.84 0-1.5.37t-1.04 1.13l-3.12 5.82q-.41.92-1.11 1.33-.69.41-2.05.41h-3.48l4.92-8.67q.51-.92 1.17-1.53.65-.6 1.68-.93-.76-.27-1.29-.77-.54-.5-1.03-1.32l-4.92-7.81h4q.69 0 1.28.36.58.35.91.97l3.57 6.05q.39.65.91.97.52.32 1.38.32h1.4v-8.67h4.9v8.67h1.29q.86 0 1.42-.32.57-.32.96-.97l3.56-6.05q.33-.62.92-.97.58-.36 1.3-.36h3.98l-4.92 7.81q-.5.82-1.03 1.32-.53.5-1.29.77 1.02.33 1.68.93.66.61 1.17 1.53Zm11.74-4.27h9.56q0-.98-.28-1.85-.28-.87-.83-1.53-.55-.65-1.4-1.03-.85-.38-1.98-.38-2.2 0-3.46 1.25-1.26 1.25-1.61 3.54Zm12.92 3.06h-13.02q.13 1.62.58 2.8.45 1.18 1.19 1.94.73.77 1.75 1.15 1.01.38 2.24.38 1.23 0 2.12-.29.9-.28 1.56-.63.67-.35 1.17-.64.5-.28.97-.28.64 0 .95.47l1.45 1.84q-.84.99-1.88 1.65-1.05.67-2.19 1.07-1.13.4-2.31.56-1.18.17-2.29.17-2.19 0-4.08-.73-1.88-.73-3.28-2.15-1.39-1.43-2.19-3.53-.8-2.1-.8-4.87 0-2.15.7-4.05.69-1.89 2-3.3 1.3-1.4 3.17-2.22 1.88-.82 4.24-.82 1.98 0 3.67.63 1.68.64 2.89 1.86 1.21 1.22 1.89 2.99.69 1.78.69 4.05 0 1.15-.25 1.55-.24.4-.94.4Zm18.24-11.15h5.07v21.03h-5.07v-9.31h-8.2v9.31h-5.06v-21.03h5.06v7.97h8.2v-7.97Zm23.35 0h5.07v21.03h-5.07v-9.31h-8.2v9.31h-5.06v-21.03h5.06v7.97h8.2v-7.97Zm18.54 9.47h2.52v-6.17h-2.75q-.96 0-1.6.27-.63.28-1.03.72-.4.44-.57 1-.16.55-.16 1.08 0 1.46.97 2.28.98.82 2.62.82Zm-.37-9.47h7.71v21.03h-4.82v-8.45h-.88q-.62 0-1.02.12-.4.11-.67.3-.28.2-.48.49-.19.28-.4.63l-3.36 5.17q-.24.43-.52.76-.28.32-.64.54-.36.21-.84.33-.48.11-1.16.11h-3.5l5.31-7.42q.43-.78 1-1.25.58-.47 1.36-.76-1.48-.27-2.51-.83-1.04-.56-1.68-1.31-.63-.75-.92-1.61-.29-.86-.29-1.7 0-1.17.47-2.28.46-1.11 1.46-1.97 1.01-.86 2.58-1.38 1.58-.52 3.8-.52Zm11.99 18.24q0-.63.24-1.21.23-.57.64-.98.41-.41.99-.66.57-.24 1.23-.24.65 0 1.22.24.56.25.98.66.42.41.67.98.24.58.24 1.21 0 .66-.24 1.22-.25.57-.67.98-.42.41-.98.64-.57.24-1.22.24-.66 0-1.23-.24-.58-.23-.99-.64-.41-.41-.64-.98-.24-.56-.24-1.22Zm9.74 0q0-.63.23-1.21.24-.57.65-.98.41-.41.98-.66.58-.24 1.23-.24.66 0 1.22.24.57.25.99.66.42.41.66.98.25.58.25 1.21 0 .66-.25 1.22-.24.57-.66.98-.42.41-.99.64-.56.24-1.22.24-.65 0-1.23-.24-.57-.23-.98-.64-.41-.41-.65-.98-.23-.56-.23-1.22Zm9.74 0q0-.63.23-1.21.24-.57.65-.98.41-.41.98-.66.57-.24 1.23-.24t1.22.24q.56.25.98.66.42.41.67.98.25.58.25 1.21 0 .66-.25 1.22-.25.57-.67.98-.42.41-.98.64-.56.24-1.22.24-.66 0-1.23-.24-.57-.23-.98-.64-.41-.41-.65-.98-.23-.56-.23-1.22Z"/></svg>